HIERARCHY
ROOT Hips
{
  OFFSET 150.432 88.1888 27.0678
  CHANNELS 6 Xposition Yposition Zposition Zrotation Xrotation Yrotation
  JOINT RightUpLeg
  {
    OFFSET -9.25679 -1.50405 0.000749919
    CHANNELS 3 Zrotation Xrotation Yrotation
    JOINT RightLeg
    {
      OFFSET 0.0460649 -41.9017 0.109432
      CHANNELS 3 Zrotation Xrotation Yrotation
      JOINT RightFoot
      {
        OFFSET 1.7988 -41.6468 0.413135
        CHANNELS 3 Zrotation Xrotation Yrotation
        End Site
        {
          OFFSET 0 -7.69 17.5
        }
      }
    }
  }
  JOINT LeftUpLeg
  {
    OFFSET 9.37007 -1.70178 -0.0772456
    CHANNELS 3 Zrotation Xrotation Yrotation
    JOINT LeftLeg
    {
      OFFSET 0.225295 -41.8622 -0.102498
      CHANNELS 3 Zrotation Xrotation Yrotation
      JOINT LeftFoot
      {
        OFFSET -2.07126 -41.2817 -1.22305
        CHANNELS 3 Zrotation Xrotation Yrotation
        End Site
        {
          OFFSET 0 -7.69 17.5
        }
      }
    }
  }
  JOINT Spine
  {
    OFFSET 0.0614897 14.2979 0.0172263
    CHANNELS 3 Zrotation Xrotation Yrotation
    JOINT Spine1
    {
      OFFSET 0.0253415 9.71429 0.00919728
      CHANNELS 3 Zrotation Xrotation Yrotation
      JOINT Spine2
      {
        OFFSET -0.0163533 10.1275 0.00641818
        CHANNELS 3 Zrotation Xrotation Yrotation
        JOINT Spine3
        {
          OFFSET 0.00964153 9.71178 0.018187
          CHANNELS 3 Zrotation Xrotation Yrotation
          JOINT Neck
          {
            OFFSET -0.0402277 10.3749 0.0917408
            CHANNELS 3 Zrotation Xrotation Yrotation
            JOINT Head
            {
              OFFSET 0.0121048 9.49481 0.108971
              CHANNELS 3 Zrotation Xrotation Yrotation
              End Site
              {
                OFFSET 0 15.95 0
              }
            }
          }
          JOINT RightShoulder
          {
            OFFSET -3.18208 6.946 0.015457
            CHANNELS 3 Zrotation Xrotation Yrotation
            JOINT RightArm
            {
              OFFSET -12.7708 0.0386499 -0.00729584
              CHANNELS 3 Zrotation Xrotation Yrotation
              JOINT RightForeArm
              {
                OFFSET -26.422 0.00272702 0.0331834
                CHANNELS 3 Zrotation Xrotation Yrotation
                JOINT RightHand
                {
                  OFFSET -25.9963 -0.0318335 0.00677283
                  CHANNELS 3 Zrotation Xrotation Yrotation
                  JOINT RightHandThumb1
                  {
                    OFFSET -2.48905 0.190105 3.12053
                    CHANNELS 3 Zrotation Xrotation Yrotation
                    JOINT RightHandThumb2
                    {
                      OFFSET -3.68274 0 0
                      CHANNELS 3 Zrotation Xrotation Yrotation
                      JOINT RightHandThumb3
                      {
                        OFFSET -2.55832 0 0
                        CHANNELS 3 Zrotation Xrotation Yrotation
                        End Site
                        {
                          OFFSET -2.194 0 0
                        }
                      }
                    }
                  }
                  JOINT RightInHandIndex
                  {
                    OFFSET -3.22368 0.508421 1.97842
                    CHANNELS 3 Zrotation Xrotation Yrotation
                    JOINT RightHandIndex1
                    {
                      OFFSET -5.21684 -0.091368 0.999158
                      CHANNELS 3 Zrotation Xrotation Yrotation
                      JOINT RightHandIndex2
                      {
                        OFFSET -3.61937 0 0
                        CHANNELS 3 Zrotation Xrotation Yrotation
                        JOINT RightHandIndex3
                        {
                          OFFSET -2.0521 0 0
                          CHANNELS 3 Zrotation Xrotation Yrotation
                          End Site
                          {
                            OFFSET -1.805 0 0
                          }
                        }
                      }
                    }
                  }
                  JOINT RightInHandMiddle
                  {
                    OFFSET -3.38211 0.517263 0.756737
                    CHANNELS 3 Zrotation Xrotation Yrotation
                    JOINT RightHandMiddle1
                    {
                      OFFSET -5.17411 -0.084 0.313895
                      CHANNELS 3 Zrotation Xrotation Yrotation
                      JOINT RightHandMiddle2
                      {
                        OFFSET -3.94947 0 0
                        CHANNELS 3 Zrotation Xrotation Yrotation
                        JOINT RightHandMiddle3
                        {
                          OFFSET -2.47579 0 0
                          CHANNELS 3 Zrotation Xrotation Yrotation
                          End Site
                          {
                            OFFSET -1.975 0 0
                          }
                        }
                      }
                    }
                  }
                  JOINT RightInHandRing
                  {
                    OFFSET -3.36516 0.537895 -0.128947
                    CHANNELS 3 Zrotation Xrotation Yrotation
                    JOINT RightHandRing1
                    {
                      OFFSET -4.63474 -0.022105 -0.478947
                      CHANNELS 3 Zrotation Xrotation Yrotation
                      JOINT RightHandRing2
                      {
                        OFFSET -3.44238 0 0
                        CHANNELS 3 Zrotation Xrotation Yrotation
                        JOINT RightHandRing3
                        {
                          OFFSET -2.3881 0 0
                          CHANNELS 3 Zrotation Xrotation Yrotation
                          End Site
                          {
                            OFFSET -1.857 0 0
                          }
                        }
                      }
                    }
                  }
                  JOINT RightInHandPinky
                  {
                    OFFSET -3.16105 0.469368 -1.20179
                    CHANNELS 3 Zrotation Xrotation Yrotation
                    JOINT RightHandPinky1
                    {
                      OFFSET -4.14105 -0.022105 -1.09053
                      CHANNELS 3 Zrotation Xrotation Yrotation
                      JOINT RightHandPinky2
                      {
                        OFFSET -2.75653 0 0
                        CHANNELS 3 Zrotation Xrotation Yrotation
                        JOINT RightHandPinky3
                        {
                          OFFSET -1.74189 0 0
                          CHANNELS 3 Zrotation Xrotation Yrotation
                          End Site
                          {
                            OFFSET -1.645 0 0
                          }
                        }
                      }
                    }
                  }
                }
              }
            }
          }
          JOINT LeftShoulder
          {
            OFFSET 3.18966 6.92856 0.062398
            CHANNELS 3 Zrotation Xrotation Yrotation
            JOINT LeftArm
            {
              OFFSET 12.7601 -0.0509086 0.00275124
              CHANNELS 3 Zrotation Xrotation Yrotation
              JOINT LeftForeArm
              {
                OFFSET 26.4828 -0.0571091 -0.0285564
                CHANNELS 3 Zrotation Xrotation Yrotation
                JOINT LeftHand
                {
                  OFFSET 25.9994 -0.0171136 -0.0547064
                  CHANNELS 3 Zrotation Xrotation Yrotation
                  JOINT LeftHandThumb1
                  {
                    OFFSET 2.48905 0.190105 3.12053
                    CHANNELS 3 Zrotation Xrotation Yrotation
                    JOINT LeftHandThumb2
                    {
                      OFFSET 3.68274 0 0
                      CHANNELS 3 Zrotation Xrotation Yrotation
                      JOINT LeftHandThumb3
                      {
                        OFFSET 2.55832 0 0
                        CHANNELS 3 Zrotation Xrotation Yrotation
                        End Site
                        {
                          OFFSET 2.194 0 0
                        }
                      }
                    }
                  }
                  JOINT LeftInHandIndex
                  {
                    OFFSET 3.22368 0.508421 1.97842
                    CHANNELS 3 Zrotation Xrotation Yrotation
                    JOINT LeftHandIndex1
                    {
                      OFFSET 5.21684 -0.091368 0.999158
                      CHANNELS 3 Zrotation Xrotation Yrotation
                      JOINT LeftHandIndex2
                      {
                        OFFSET 3.61937 0 0
                        CHANNELS 3 Zrotation Xrotation Yrotation
                        JOINT LeftHandIndex3
                        {
                          OFFSET 2.0521 0 0
                          CHANNELS 3 Zrotation Xrotation Yrotation
                          End Site
                          {
                            OFFSET 1.805 0 0
                          }
                        }
                      }
                    }
                  }
                  JOINT LeftInHandMiddle
                  {
                    OFFSET 3.38211 0.517263 0.756737
                    CHANNELS 3 Zrotation Xrotation Yrotation
                    JOINT LeftHandMiddle1
                    {
                      OFFSET 5.17411 -0.084 0.313895
                      CHANNELS 3 Zrotation Xrotation Yrotation
                      JOINT LeftHandMiddle2
                      {
                        OFFSET 3.94947 0 0
                        CHANNELS 3 Zrotation Xrotation Yrotation
                        JOINT LeftHandMiddle3
                        {
                          OFFSET 2.47579 0 0
                          CHANNELS 3 Zrotation Xrotation Yrotation
                          End Site
                          {
                            OFFSET 1.975 0 0
                          }
                        }
                      }
                    }
                  }
                  JOINT LeftInHandRing
                  {
                    OFFSET 3.36516 0.537895 -0.128947
                    CHANNELS 3 Zrotation Xrotation Yrotation
                    JOINT LeftHandRing1
                    {
                      OFFSET 4.63474 -0.022105 -0.478947
                      CHANNELS 3 Zrotation Xrotation Yrotation
                      JOINT LeftHandRing2
                      {
                        OFFSET 3.44238 0 0
                        CHANNELS 3 Zrotation Xrotation Yrotation
                        JOINT LeftHandRing3
                        {
                          OFFSET 2.3881 0 0
                          CHANNELS 3 Zrotation Xrotation Yrotation
                          End Site
                          {
                            OFFSET 1.857 0 0
                          }
                        }
                      }
                    }
                  }
                  JOINT LeftInHandPinky
                  {
                    OFFSET 3.16105 0.469368 -1.20179
                    CHANNELS 3 Zrotation Xrotation Yrotation
                    JOINT LeftHandPinky1
                    {
                      OFFSET 4.14105 -0.022105 -1.09053
                      CHANNELS 3 Zrotation Xrotation Yrotation
                      JOINT LeftHandPinky2
                      {
                        OFFSET 2.75653 0 0
                        CHANNELS 3 Zrotation Xrotation Yrotation
                        JOINT LeftHandPinky3
                        {
                          OFFSET 1.74189 0 0
                          CHANNELS 3 Zrotation Xrotation Yrotation
                          End Site
                          {
                            OFFSET 1.645 0 0
                          }
                        }
                      }
                    }
                  }
                }
              }
            }
          }
        }
      }
    }
  }
}
MOTION
Frames: 3
Frame Time: 0.00833333
6.013406125612551705e+02 1.663357131736409589e-01 -1.014627725506854761e+00 1.550789686140680246e+00 7.066543811097739658e-01 2.922228852130105636e+00 -2.355991905234963379e+00 -3.450591558012660043e-01 -2.819629243293190868e+00 3.389209906809620421e-01 4.110943446119527112e-01 -5.789194841801267311e-01 -7.372584463479885386e-01 -4.092267079208622982e-01 -1.411160387006614503e+00 4.233825633867785432e-02 -7.259893595318420711e-01 -5.016933451551510714e-01 1.154365757199065312e+00 -1.508605439307510343e+00 -1.696567531294848941e+00 -3.005777204640341926e-01 1.268216515285772505e+00 -5.947846767582952721e-01 -1.109498876824910774e+00 1.244650314667833102e-01 3.499921060371678383e+00 -2.003076477994034654e-01 3.713149236330605674e-01 8.944180140089272868e-01 -3.517205643573197982e-01 6.240696686998449261e-01 1.501241282841419000e+00 1.639080516111185160e-01 1.374100887196346155e-01 -3.470755513141265403e-01 -1.106806550990132865e-01 4.631410776887614350e-02 2.532385220814684423e+00 2.800125038049538162e+00 2.423264608184426017e+00 -8.490273780408260862e+00 1.660326055738778339e-01 5.463728568129915253e-01 8.178864233996510635e-02 -7.641744627693788594e+00 5.307942043188018655e-01 1.323429431044517024e+01 -1.802387779791227373e+01 -6.850596488478331025e+00 -1.120555141497399916e+02 6.615183602648319727e+00 -1.905909391557192523e+00 5.215237013018992895e-01 0.000000000000000000e+00 0.000000000000000000e+00 0.000000000000000000e+00 -1.438797782095396037e-14 7.929556804787341241e-15 0.000000000000000000e+00 -6.418935439241960842e-15 2.960279492112695472e-15 0.000000000000000000e+00 6.638427283928744809e-15 -1.420618716025180393e-15 -1.015654942186655716e-15 0.000000000000000000e+00 0.000000000000000000e+00 0.000000000000000000e+00 0.000000000000000000e+00 7.597641789855717941e-15 1.709416562763184178e-14 0.000000000000000000e+00 1.375614684921455710e-16 5.685217100301285941e-15 6.638427283928744809e-15 -1.420618716025180393e-15 -1.015654942186655716e-15 0.000000000000000000e+00 -8.516454335681818574e-15 -1.140839308658890255e-15 0.000000000000000000e+00 -3.492078246914766239e-15 -1.435897358786557150e-16 0.000000000000000000e+00 1.065684811059856078e-14 5.515854158467802490e-15 6.638427283928744809e-15 -1.420618716025180393e-15 -1.015654942186655716e-15 0.000000000000000000e+00 0.000000000000000000e+00 0.000000000000000000e+00 0.000000000000000000e+00 1.551876787957161038e-16 -4.298980015008208385e-15 0.000000000000000000e+00 -1.647616274151850694e-15 2.523137356077178421e-15 6.638427283928744809e-15 -1.420618716025180393e-15 -1.015654942186655716e-15 0.000000000000000000e+00 0.000000000000000000e+00 0.000000000000000000e+00 0.000000000000000000e+00 -2.759556632204876124e-15 -2.549261458273512578e-14 0.000000000000000000e+00 2.382484940617980134e-16 7.040619772310721553e-15 9.466997609001034375e-01 7.793119320933845628e-01 1.597018040695000196e-01 -1.226758842096672275e+01 9.830289495291193447e-01 1.196431500644755452e+01 2.981984593682820517e+01 -2.143710421789840836e+01 3.281827063328294258e+01 2.029780799885502418e+01 1.263581838534020108e+01 4.263645234353495184e+00 0.000000000000000000e+00 0.000000000000000000e+00 0.000000000000000000e+00 4.127934981712610612e-15 -3.346070910392451389e-15 0.000000000000000000e+00 7.822029492490500845e-15 -7.052473576585887449e-15 0.000000000000000000e+00 -2.469516733783868105e-15 -1.410903410354198356e-14 -3.882709299476508417e-15 0.000000000000000000e+00 0.000000000000000000e+00 0.000000000000000000e+00 0.000000000000000000e+00 2.260115560823720415e-15 2.371906370109324173e-16 0.000000000000000000e+00 1.031624541072444922e-15 -1.508356885611860524e-15 -2.469516733783868105e-15 -1.410903410354198356e-14 -3.882709299476508417e-15 0.000000000000000000e+00 6.231316758722959075e-15 -4.586462009137787669e-16 0.000000000000000000e+00 -7.361007065347384968e-15 6.302345603944642502e-15 0.000000000000000000e+00 -7.512601258562341635e-15 4.383553387746598498e-15 -2.469516733783868105e-15 -1.410903410354198356e-14 -3.882709299476508417e-15 0.000000000000000000e+00 0.000000000000000000e+00 0.000000000000000000e+00 0.000000000000000000e+00 2.910334392870461406e-15 5.287322614141051583e-15 0.000000000000000000e+00 -4.703931579392594861e-15 1.067968230405386823e-14 -2.469516733783868105e-15 -1.410903410354198356e-14 -3.882709299476508417e-15 0.000000000000000000e+00 0.000000000000000000e+00 0.000000000000000000e+00 0.000000000000000000e+00 -3.382484657082941507e-16 3.623731582162484607e-15 0.000000000000000000e+00 2.770281752156125871e-15 3.052081268875900283e-15
6.013336111942171556e+02 1.640433586486789441e-01 -9.900244053800280053e-01 1.529588808107775089e+00 7.049834264312895282e-01 2.859213429187904776e+00 -2.394042850995247385e+00 -3.515216118566362180e-01 -2.861123708659275344e+00 3.581649605479887422e-01 3.984881397925556512e-01 -6.099426539576007222e-01 -7.208948758921639444e-01 -3.768182885761774958e-01 -1.329475577991677593e+00 4.349814998263509813e-02 -6.853637128439392656e-01 -5.063743678505103762e-01 1.109430214527509451e+00 -1.499386618628607559e+00 -1.647812995870529207e+00 -2.882316431961063352e-01 1.249151700071247761e+00 -5.867210777450921899e-01 -1.065001885728754871e+00 1.368642158286079991e-01 3.337740611252951517e+00 -1.906212668911876629e-01 3.591905983423241411e-01 8.526998955166619210e-01 -3.360941656438456993e-01 6.072768349952200051e-01 1.435388525052764486e+00 1.577727392102654391e-01 1.379322804054734231e-01 -3.347394003489718717e-01 -1.148596855192287186e-01 4.694569269027241282e-02 2.543197844359211590e+00 2.673653058203325106e+00 2.434262362254485890e+00 -8.245933148847580441e+00 1.631171377803679046e-01 5.909189197090805035e-01 8.465317240319789049e-02 -7.284051911688881553e+00 7.939365025829594469e-01 1.289504768197197748e+01 -1.735159022797112982e+01 -7.459066494880402409e+00 -1.115173869214872866e+02 6.507389404508662878e+00 -1.933964232305469766e+00 3.472701887260671860e-01 0.000000000000000000e+00 0.000000000000000000e+00 0.000000000000000000e+00 -1.320317911840041438e-14 7.340665651885242094e-15 0.000000000000000000e+00 -5.512046541630030323e-15 2.756217170537328034e-15 0.000000000000000000e+00 6.223033025413391432e-15 -1.131514344479663527e-15 -1.031224237278750990e-15 0.000000000000000000e+00 0.000000000000000000e+00 0.000000000000000000e+00 0.000000000000000000e+00 6.854091378647416588e-15 1.524677312285548249e-14 0.000000000000000000e+00 4.266123410674297955e-17 5.542964210173923789e-15 6.223033025413391432e-15 -1.131514344479663527e-15 -1.031224237278750990e-15 0.000000000000000000e+00 -7.842240309278034648e-15 -9.212895298422080122e-16 0.000000000000000000e+00 -3.348924923191253465e-15 -4.726086973346587379e-16 0.000000000000000000e+00 9.835070388682324429e-15 5.543909441782129765e-15 6.223033025413391432e-15 -1.131514344479663527e-15 -1.031224237278750990e-15 0.000000000000000000e+00 0.000000000000000000e+00 0.000000000000000000e+00 0.000000000000000000e+00 2.112479393105145972e-16 -3.862026461731181299e-15 0.000000000000000000e+00 -1.698710416321300868e-15 2.225412422692022908e-15 6.223033025413391432e-15 -1.131514344479663527e-15 -1.031224237278750990e-15 0.000000000000000000e+00 0.000000000000000000e+00 0.000000000000000000e+00 0.000000000000000000e+00 -2.571522098120855266e-15 -2.309604961028137755e-14 0.000000000000000000e+00 1.428134132919027028e-16 6.480737738617550534e-15 9.475276357780103575e-01 8.838343310788088214e-01 1.554842261056784691e-01 -1.195783794956818546e+01 1.072230708525597764e+00 1.179990110533889336e+01 2.843041478477442752e+01 -2.108893209180369510e+01 3.118376693433835101e+01 1.967059905188537527e+01 1.219554531677500719e+01 4.831928708573441256e+00 0.000000000000000000e+00 0.000000000000000000e+00 0.000000000000000000e+00 3.816908392107917025e-15 -2.898199718161681628e-15 0.000000000000000000e+00 7.261873858316606229e-15 -6.399304092058427344e-15 0.000000000000000000e+00 -2.220161401856418789e-15 -1.305939946467653711e-14 -3.601835454929851530e-15 0.000000000000000000e+00 0.000000000000000000e+00 0.000000000000000000e+00 0.000000000000000000e+00 2.108014435964260678e-15 3.861249158171593707e-16 0.000000000000000000e+00 9.668166472574031955e-16 -1.028145303251942225e-15 -2.220161401856418789e-15 -1.305939946467653711e-14 -3.601835454929851530e-15 0.000000000000000000e+00 5.795463317303724603e-15 -2.994097646367412981e-16 0.000000000000000000e+00 -6.684017151280924543e-15 6.007840740054206659e-15 0.000000000000000000e+00 -6.898403984085282954e-15 4.189142462744799334e-15 -2.220161401856418789e-15 -1.305939946467653711e-14 -3.601835454929851530e-15 0.000000000000000000e+00 0.000000000000000000e+00 0.000000000000000000e+00 0.000000000000000000e+00 2.781458610595461688e-15 5.117105512395950486e-15 0.000000000000000000e+00 -4.535031992219030514e-15 1.021140172437114604e-14 -2.220161401856418789e-15 -1.305939946467653711e-14 -3.601835454929851530e-15 0.000000000000000000e+00 0.000000000000000000e+00 0.000000000000000000e+00 0.000000000000000000e+00 -4.017078938765399534e-16 3.542811659673729666e-15 0.000000000000000000e+00 2.525803645832517135e-15 2.954519951605183778e-15
6.013239693761418039e+02 1.615126439362937205e-01 -9.615722851236233604e-01 1.507221188407323442e+00 7.028191579574736281e-01 2.794573887999113992e+00 -2.430516065053657027e+00 -3.602808823326467680e-01 -2.902289174023673368e+00 3.761327439314693377e-01 3.853112998077727891e-01 -6.384348354427611394e-01 -7.023358617084972666e-01 -3.441777364505503867e-01 -1.246101157094282819e+00 4.493620454264082853e-02 -6.472866176673084393e-01 -5.114913110070825608e-01 1.064070551698037992e+00 -1.487055896560910417e+00 -1.597423691901812326e+00 -2.741423717866751653e-01 1.228026974370803437e+00 -5.769617217055272862e-01 -1.016916545015344342e+00 1.520648844179665615e-01 3.168191849041184227e+00 -1.802625224202442367e-01 3.473060375519609888e-01 8.090085219677947137e-01 -3.192687594041753729e-01 5.901647027291462289e-01 1.366120141139133271e+00 1.512996566247715446e-01 1.381343442496846263e-01 -3.218296752328132504e-01 -1.190580119411961679e-01 4.733819242035150476e-02 2.550341641818384186e+00 2.541630046363858586e+00 2.439077479971150098e+00 -7.989568842292855244e+00 1.603453796681133248e-01 6.354284513350401120e-01 8.655898220882538019e-02 -6.893004947579782105e+00 1.065583715712638657e+00 1.253821869887658558e+01 -1.661509042125531010e+01 -8.068990999805034647e+00 -1.107403023282358419e+02 6.386097860758285449e+00 -1.961647914106585011e+00 1.765313267088518823e-01 0.000000000000000000e+00 0.000000000000000000e+00 0.000000000000000000e+00 -1.199279881636377303e-14 6.750649967023420490e-15 0.000000000000000000e+00 -4.649430432902190300e-15 2.541083651794932294e-15 0.000000000000000000e+00 5.787146753563908667e-15 -8.421789411817507161e-16 -1.033558567024670715e-15 0.000000000000000000e+00 0.000000000000000000e+00 0.000000000000000000e+00 0.000000000000000000e+00 6.107778178831706025e-15 1.341986211571192638e-14 0.000000000000000000e+00 -3.989579558542810925e-17 5.398348557111752355e-15 5.787146753563908667e-15 -8.421789411817507161e-16 -1.033558567024670715e-15 0.000000000000000000e+00 -7.168423222949165218e-15 -7.283537617055444985e-16 0.000000000000000000e+00 -3.173937101207468947e-15 -7.624019754413750354e-16 0.000000000000000000e+00 9.012027135582824195e-15 5.571393101227919812e-15 5.787146753563908667e-15 -8.421789411817507161e-16 -1.033558567024670715e-15 0.000000000000000000e+00 0.000000000000000000e+00 0.000000000000000000e+00 0.000000000000000000e+00 2.727192269852446065e-16 -3.385570764264023707e-15 0.000000000000000000e+00 -1.742521909107533075e-15 1.949183233790031794e-15 5.787146753563908667e-15 -8.421789411817507161e-16 -1.033558567024670715e-15 0.000000000000000000e+00 0.000000000000000000e+00 0.000000000000000000e+00 0.000000000000000000e+00 -2.388909896894569784e-15 -2.068434016611407388e-14 0.000000000000000000e+00 5.218914389063058843e-17 5.926885306849154265e-15 9.455128931101438594e-01 9.908736654010200651e-01 1.458787022439607395e-01 -1.161740116716459070e+01 1.164750083909131817e+00 1.161390905812341678e+01 2.694931061534423478e+01 -2.068307136771105093e+01 2.943926342755258574e+01 1.898640657626432926e+01 1.173953796369361058e+01 5.415206257276854451e+00 0.000000000000000000e+00 0.000000000000000000e+00 0.000000000000000000e+00 3.493818426582907318e-15 -2.436070928422320385e-15 0.000000000000000000e+00 6.690248632437861473e-15 -5.746427372002335123e-15 0.000000000000000000e+00 -1.971234215068428867e-15 -1.199002891445033267e-14 -3.316002316169021871e-15 0.000000000000000000e+00 0.000000000000000000e+00 0.000000000000000000e+00 0.000000000000000000e+00 1.952688496954328403e-15 5.296425651902137855e-16 0.000000000000000000e+00 8.913809717424167624e-16 -5.366857451603645031e-16 -1.971234215068428867e-15 -1.199002891445033267e-14 -3.316002316169021871e-15 0.000000000000000000e+00 5.360291427440575420e-15 -1.398325800114551726e-16 0.000000000000000000e+00 -5.996817884160113081e-15 5.716067965616395582e-15 0.000000000000000000e+00 -6.269093012916756126e-15 4.001513647085901222e-15 -1.971234215068428867e-15 -1.199002891445033267e-14 -3.316002316169021871e-15 0.000000000000000000e+00 0.000000000000000000e+00 0.000000000000000000e+00 0.000000000000000000e+00 2.648890375273640730e-15 4.933930727387167208e-15 0.000000000000000000e+00 -4.360379149292990731e-15 9.729835721416195769e-15 -1.971234215068428867e-15 -1.199002891445033267e-14 -3.316002316169021871e-15 0.000000000000000000e+00 0.000000000000000000e+00 0.000000000000000000e+00 0.000000000000000000e+00 -4.625173749645512031e-16 3.455525846595611128e-15 0.000000000000000000e+00 2.267747814116725282e-15 2.866710897629411281e-15
